<?xml version="1.0" encoding="UTF-8" standalone="no"?>
<!-- Created with Inkscape (http://www.inkscape.org/) -->

<svg
   xmlns:dc="http://purl.org/dc/elements/1.1/"
   xmlns:cc="http://creativecommons.org/ns#"
   xmlns:rdf="http://www.w3.org/1999/02/22-rdf-syntax-ns#"
   xmlns:svg="http://www.w3.org/2000/svg"
   xmlns="http://www.w3.org/2000/svg"
   xmlns:sodipodi="http://sodipodi.sourceforge.net/DTD/sodipodi-0.dtd"
   xmlns:inkscape="http://www.inkscape.org/namespaces/inkscape"
   id="svg2"
   height="200"
   width="800"
   version="1.1"
   viewBox="0 0 799.99999 199.99999"
   inkscape:version="0.91 r13725"
   sodipodi:docname="LGTMCamera.svg"
   inkscape:export-filename="U:\Documents\app.mikumiku.moe\assets\logos\svg\LGTMCamera.png"
   inkscape:export-xdpi="90"
   inkscape:export-ydpi="90">
  <defs
     id="defs32" />
  <sodipodi:namedview
     pagecolor="#ffffff"
     bordercolor="#666666"
     borderopacity="1"
     objecttolerance="10"
     gridtolerance="10"
     guidetolerance="10"
     inkscape:pageopacity="1"
     inkscape:pageshadow="2"
     inkscape:window-width="1355"
     inkscape:window-height="814"
     id="namedview30"
     showgrid="false"
     units="px"
     inkscape:zoom="0.70696667"
     inkscape:cx="383.10831"
     inkscape:cy="207.52089"
     inkscape:window-x="0"
     inkscape:window-y="0"
     inkscape:window-maximized="0"
     inkscape:current-layer="svg2" />
  <metadata
     id="metadata7">
    <rdf:RDF>
      <cc:Work
         rdf:about="">
        <dc:format>image/svg+xml</dc:format>
        <dc:type
           rdf:resource="http://purl.org/dc/dcmitype/StillImage" />
        <dc:title></dc:title>
      </cc:Work>
    </rdf:RDF>
  </metadata>
  <g
     id="layer1"
     transform="matrix(0.28443253,0,0,0.28443253,-3.1274159,-98.542444)">
    <g
       id="g4967"
       transform="translate(-42.892,171.85)">
      <rect
         id="rect4136"
         rx="81.429001"
         ry="81.429001"
         height="510"
         width="510"
         y="271.17999"
         x="117.05"
         style="fill:#1a1a1a" />
      <g
         id="g4958"
         transform="matrix(1.2252,0,0,1.2252,550.58,-112.08)">
        <g
           id="g4917"
           transform="matrix(0,-3.1714,3.1714,0,-304.29,679.51)">
          <circle
             id="circle4359"
             class="captureButton__bg"
             cy="50"
             cx="50"
             r="45"
             style="fill:#ffffff;stroke:#bdbdbd;stroke-width:10" />
          <g
             id="g10"
             style="fill:none">
            <g
               id="g12"
               style="stroke-width:10">
              <circle
                 id="circle4361"
                 class="captureButton__limit"
                 cy="50"
                 cx="50"
                 r="45"
                 style="stroke:#616161;stroke-dasharray:235.61944902" />
              <circle
                 id="circle4363"
                 class="captureButton__loop"
                 cy="50"
                 cx="50"
                 r="45"
                 style="stroke:#ffc107;stroke-dasharray:235.97287819, 1000" />
              <circle
                 id="circle4365"
                 class="captureButton__4sec"
                 cy="50"
                 cx="50"
                 r="45"
                 style="stroke:#4caf50;stroke-dasharray:224.19190574, 1000;stroke-dashoffset:-11.78100014" />
              <circle
                 id="circle4367"
                 class="captureButton__10sec"
                 cy="50"
                 cx="50"
                 r="45"
                 style="stroke:#00bcd4;stroke-dasharray:141.72509859, 1000;stroke-dashoffset:-94.2480011" />
            </g>
            <circle
               id="circle4369"
               class="captureButton__button"
               cy="50"
               cx="50"
               r="33.75"
               style="stroke:#000000" />
          </g>
        </g>
      </g>
    </g>
    <g
       id="text4144"
       style="fill:#1a1a1a">
      <path
         id="path4149"
         d="m 716.26,581.01 0,193.1 101.27,0 0,36.482 -146.87,0 0,-229.58 45.602,0 z"
         inkscape:connector-curvature="0" />
      <path
         id="path4151"
         d="m 955.85,612.77 q -38.683,0 -60.383,22.329 -21.7,22.329 -21.7,60.698 0,38.369 22.644,60.698 22.958,22.329 61.641,22.329 19.499,0 34.595,-6.2899 l 0,-66.044 -63.843,0 0,-33.651 105.67,0 0,124.23 q -37.111,16.668 -80.511,16.668 -56.924,0 -90.889,-31.764 -33.966,-32.079 -33.966,-86.172 0,-54.408 32.708,-86.172 32.708,-31.764 89.946,-31.764 42.142,0 73.907,20.128 l -13.209,31.764 q -28.35,-16.98 -56.65,-16.98 z"
         inkscape:connector-curvature="0" />
      <path
         id="path4153"
         d="m 1236.9,581.01 0,36.482 -65.73,0 0,193.1 -44.658,0 0,-193.1 -65.73,0 0,-36.482 176.12,0 z"
         inkscape:connector-curvature="0" />
      <path
         id="path4155"
         d="m 1443.5,642.97 -0.629,0 -41.513,167.63 -46.231,0 -41.513,-167.63 -0.629,0 -15.41,167.63 -42.457,0 27.361,-229.58 52.206,0 43.715,179.26 0.629,0 43.715,-179.26 52.521,0 27.361,229.58 -43.715,0 -15.41,-167.63 z"
         inkscape:connector-curvature="0" />
      <path
         id="path4157"
         d="m 1744.1,613.4 q -35.538,0 -56.609,22.329 -21.071,22.015 -21.071,60.069 0,37.74 21.7,60.069 21.7,22.329 55.98,22.329 28.619,0 55.98,-17.297 l 13.209,32.393 q -31.764,20.442 -73.278,20.442 -53.779,0 -86.172,-31.764 -32.393,-32.079 -32.393,-86.172 0,-54.408 31.764,-86.172 31.764,-31.764 86.801,-31.764 41.513,0 73.278,20.442 l -13.209,32.393 Q 1772.719,613.4 1744.1,613.4 Z"
         inkscape:connector-curvature="0" />
      <path
         id="path4159"
         d="m 1916.6,643.91 q 37.425,0 53.779,14.781 16.354,14.467 16.354,47.174 l 0,60.698 q 0,22.329 4.7174,44.029 l -38.683,0 q -1.887,-10.378 -2.8304,-24.216 l -0.629,0 q -8.8059,12.894 -23.902,20.128 -14.781,7.2334 -32.393,7.2334 -22.958,0 -36.796,-12.58 -13.523,-12.894 -13.523,-35.538 0,-27.361 22.958,-43.715 23.273,-16.668 66.673,-16.668 l 13.523,0 0,-0.94348 q 0,-16.668 -6.6044,-23.273 -6.6044,-6.6044 -23.587,-6.6044 -30.821,0 -58.182,14.152 l -5.9754,-30.506 q 29.877,-14.152 65.101,-14.152 z m -35.538,118.56 q 0,10.064 5.9754,15.725 5.9755,5.6609 16.354,5.6609 17.926,0 30.192,-11.636 12.265,-11.636 12.265,-29.248 l 0,-10.693 -13.523,0 q -24.845,0 -38.054,8.4914 -13.209,8.1769 -13.209,21.7 z"
         inkscape:connector-curvature="0" />
      <path
         id="path4161"
         d="m 2031.8,647.05 37.74,0 0.9435,22.015 0.6289,0 q 18.241,-25.16 41.828,-25.16 15.41,0 25.474,6.2899 10.064,6.2899 17.297,20.442 l 0.629,0 q 20.442,-26.732 48.118,-26.732 26.418,0 38.368,14.781 12.265,14.467 12.265,49.061 l 0,102.84 -39.626,0 0,-93.405 q 0,-24.531 -5.3464,-33.022 -5.0319,-8.4914 -18.241,-8.4914 -11.322,0 -19.813,11.951 -8.4914,11.951 -8.4914,29.563 l 0,93.405 -39.626,0 0,-93.405 q 0,-24.531 -5.3465,-33.022 -5.0319,-8.4914 -18.241,-8.4914 -11.322,0 -19.813,11.951 -8.4914,11.951 -8.4914,29.563 l 0,93.405 -40.256,0 0,-163.54 z"
         inkscape:connector-curvature="0" />
      <path
         id="path4163"
         d="m 2327,715.62 76.737,0 q -0.3145,-20.442 -10.378,-31.135 -9.7494,-11.007 -27.676,-11.007 -17.297,0 -27.676,11.007 -10.064,11.007 -11.007,31.135 z m 0,27.99 q 1.5725,18.555 14.152,29.563 12.894,10.693 32.393,10.693 23.273,0 46.231,-11.636 l 9.4349,28.934 q -28.305,12.58 -59.754,12.58 -37.11,0 -60.383,-22.958 -22.958,-22.958 -22.958,-61.956 0,-39.626 21.386,-62.27 21.386,-22.644 57.867,-22.644 36.482,0 56.609,21.7 20.442,21.7 20.442,62.27 0,7.8624 -0.9435,15.725 l -114.48,0 z"
         inkscape:connector-curvature="0" />
      <path
         id="path4165"
         d="m 2476.5,647.05 38.998,0 0.629,31.45 0.629,0 q 27.99,-34.595 75.164,-34.595 l 0,33.337 q -34.909,0 -54.408,16.983 -19.184,16.668 -19.184,44.973 l 0,71.391 -41.828,0 0,-163.54 z"
         inkscape:connector-curvature="0" />
      <path
         id="path4167"
         d="m 2685.6,643.91 q 37.425,0 53.779,14.781 16.354,14.467 16.354,47.174 l 0,60.698 q 0,22.329 4.7174,44.029 l -38.683,0 q -1.8869,-10.378 -2.8304,-24.216 l -0.629,0 q -8.8059,12.894 -23.902,20.128 -14.781,7.2334 -32.393,7.2334 -22.958,0 -36.796,-12.58 -13.523,-12.894 -13.523,-35.538 0,-27.361 22.958,-43.715 23.273,-16.668 66.673,-16.668 l 13.523,0 0,-0.94348 q 0,-16.668 -6.6044,-23.273 -6.6044,-6.6044 -23.587,-6.6044 -30.821,0 -58.182,14.152 l -5.9754,-30.506 q 29.877,-14.152 65.101,-14.152 z m -35.538,118.56 q 0,10.064 5.9755,15.725 5.9754,5.6609 16.354,5.6609 17.926,0 30.192,-11.636 12.265,-11.636 12.265,-29.248 l 0,-10.693 -13.523,0 q -24.845,0 -38.054,8.4914 -13.209,8.1769 -13.209,21.7 z"
         inkscape:connector-curvature="0" />
    </g>
  </g>
</svg>
