<?xml version="1.0" encoding="UTF-8" standalone="no"?>
<!-- Created with Inkscape (http://www.inkscape.org/) -->

<svg
   xmlns:dc="http://purl.org/dc/elements/1.1/"
   xmlns:cc="http://creativecommons.org/ns#"
   xmlns:rdf="http://www.w3.org/1999/02/22-rdf-syntax-ns#"
   xmlns:svg="http://www.w3.org/2000/svg"
   xmlns="http://www.w3.org/2000/svg"
   xmlns:sodipodi="http://sodipodi.sourceforge.net/DTD/sodipodi-0.dtd"
   xmlns:inkscape="http://www.inkscape.org/namespaces/inkscape"
   id="svg2"
   viewBox="0 0 800 200"
   version="1.1"
   inkscape:version="0.91 r13725"
   sodipodi:docname="nicocast.svg"
   width="800"
   height="200"
   inkscape:export-filename="C:\Users\3846masa\Desktop\logo.png"
   inkscape:export-xdpi="90"
   inkscape:export-ydpi="90">
  <defs
     id="defs27" />
  <sodipodi:namedview
     pagecolor="#ffffff"
     bordercolor="#666666"
     borderopacity="1"
     objecttolerance="10"
     gridtolerance="10"
     guidetolerance="10"
     inkscape:pageopacity="0"
     inkscape:pageshadow="2"
     inkscape:window-width="1366"
     inkscape:window-height="715"
     id="namedview25"
     showgrid="false"
     inkscape:zoom="0.71604163"
     inkscape:cx="239.71299"
     inkscape:cy="140.56582"
     inkscape:window-x="-8"
     inkscape:window-y="-8"
     inkscape:window-maximized="1"
     inkscape:current-layer="svg2"
     fit-margin-top="100"
     fit-margin-left="100"
     fit-margin-right="100"
     fit-margin-bottom="100" />
  <metadata
     id="metadata7">
    <rdf:RDF>
      <cc:Work
         rdf:about="">
        <dc:format>image/svg+xml</dc:format>
        <dc:type
           rdf:resource="http://purl.org/dc/dcmitype/StillImage" />
        <dc:title />
      </cc:Work>
    </rdf:RDF>
  </metadata>
  <g
     id="g4207">
    <g
       id="g4200">
      <path
         id="path3012"
         d="m 89.569487,64.743268 c -2.106963,0 -4.912109,2.259862 -4.912109,3.957031 0,0.63871 3.231407,4.739639 7.179687,9.111329 3.948395,4.37169 7.177734,8.304657 7.177734,8.742187 0,1.45296 -3.664368,1.814772 -18.539062,1.826172 l -14.740235,0.01172 -2.785156,2.699219 -2.785156,2.699218 0.0039,30.027347 c 0.0029,18.25645 0.350603,31.27268 0.886719,33.20313 1.178467,4.24333 3.459189,5.54124 11.421875,6.50781 6.604034,0.80163 6.738498,0.86695 10.490234,5.05273 4.74098,5.28946 6.584421,5.4332 10.306641,0.80078 4.270668,-5.31418 5.860677,-5.82422 18.160161,-5.82422 13.54967,0 15.80386,0.62646 20.14843,5.61329 2.91694,3.34828 3.7594,3.85739 5.61914,3.39062 1.29149,-0.32422 3.42951,-2.28129 5.22266,-4.77734 l 3.03711,-4.22657 5.9414,0 c 6.96234,0 11.06622,-1.4759 13.21094,-4.75 1.42196,-2.17138 1.54297,-4.72148 1.54297,-32.375 0,-33.388779 -0.0694,-33.853539 -5.49024,-36.562499 -2.4551,-1.22723 -5.31724,-1.475722 -16.93945,-1.476562 -19.35782,-0.0017 -19.37178,-0.01655 -9.83398,-10.148438 4.04243,-4.29423 7.34961,-8.458889 7.34961,-9.255859 0,-2.24836 -3.01159,-4.520304 -5.24805,-3.958984 -1.06521,0.26748 -6.58517,4.872645 -12.26758,10.234375 -5.68229,5.36173 -10.55363,9.748046 -10.82422,9.748046 -0.27056,0 -5.22196,-4.560705 -11.00195,-10.134765 C 95.083206,68.302824 90.752415,64.743268 89.569487,64.743268 Z"
         style="fill:#212121;fill-opacity:1;stroke:none"
         inkscape:connector-curvature="0" />
      <g
         id="g4195"
         style="fill:#212121;fill-opacity:1;stroke:none">
        <path
           inkscape:connector-curvature="0"
           id="path3014"
           d="m 155.90039,69.330078 a 2.2496446,2.2496446 0 0 0 -0.29101,4.486328 c 14.77691,1.709396 26.84462,14.651667 29.79492,32.687504 a 2.2496446,2.2496446 0 1 0 4.43945,-0.72657 C 186.63104,86.137323 173.19209,71.32198 156.125,69.347656 a 2.2496446,2.2496446 0 0 0 -0.22461,-0.01758 z"
           style="color:#000000;font-style:normal;font-variant:normal;font-weight:normal;font-stretch:normal;font-size:medium;line-height:normal;font-family:sans-serif;text-indent:0;text-align:start;text-decoration:none;text-decoration-line:none;text-decoration-style:solid;text-decoration-color:#000000;letter-spacing:normal;word-spacing:normal;text-transform:none;direction:ltr;block-progression:tb;writing-mode:lr-tb;baseline-shift:baseline;text-anchor:start;white-space:normal;clip-rule:nonzero;display:inline;overflow:visible;visibility:visible;opacity:0.98999999;isolation:auto;mix-blend-mode:normal;color-interpolation:sRGB;color-interpolation-filters:linearRGB;solid-color:#000000;solid-opacity:1;fill:#212121;fill-opacity:1;fill-rule:nonzero;stroke:none;stroke-width:4.49883938;stroke-linecap:round;stroke-linejoin:round;stroke-miterlimit:4;stroke-dasharray:none;stroke-dashoffset:0;stroke-opacity:1;color-rendering:auto;image-rendering:auto;shape-rendering:auto;text-rendering:auto;enable-background:accumulate" />
        <path
           inkscape:connector-curvature="0"
           id="path3016"
           d="m 156.13867,50.3125 a 3.3819347,3.3819347 0 0 0 -0.43945,6.744141 c 22.15671,2.563101 40.25383,22.045043 44.66797,49.218749 a 3.3819347,3.3819347 0 1 0 6.67578,-1.08398 C 202.23842,75.614299 182.09069,53.300949 156.47656,50.337891 a 3.3819347,3.3819347 0 0 0 -0.33789,-0.02539 z"
           style="color:#000000;font-style:normal;font-variant:normal;font-weight:normal;font-stretch:normal;font-size:medium;line-height:normal;font-family:sans-serif;text-indent:0;text-align:start;text-decoration:none;text-decoration-line:none;text-decoration-style:solid;text-decoration-color:#000000;letter-spacing:normal;word-spacing:normal;text-transform:none;direction:ltr;block-progression:tb;writing-mode:lr-tb;baseline-shift:baseline;text-anchor:start;white-space:normal;clip-rule:nonzero;display:inline;overflow:visible;visibility:visible;opacity:0.98999999;isolation:auto;mix-blend-mode:normal;color-interpolation:sRGB;color-interpolation-filters:linearRGB;solid-color:#000000;solid-opacity:1;fill:#212121;fill-opacity:1;fill-rule:nonzero;stroke:none;stroke-width:6.76319313;stroke-linecap:round;stroke-linejoin:round;stroke-miterlimit:4;stroke-dasharray:none;stroke-dashoffset:0;stroke-opacity:1;color-rendering:auto;image-rendering:auto;shape-rendering:auto;text-rendering:auto;enable-background:accumulate" />
        <path
           inkscape:connector-curvature="0"
           id="path3018"
           d="m 152.48438,27.291016 a 4.8436888,4.8436888 0 0 0 -0.62891,9.660156 c 32.11847,3.715468 58.33626,31.442593 64.79883,69.962888 a 4.8436888,4.8436888 0 1 0 9.55273,-1.60351 C 219.15778,63.293291 189.94288,31.60725 152.96875,27.330078 a 4.8436888,4.8436888 0 0 0 -0.48437,-0.03906 z"
           style="color:#000000;font-style:normal;font-variant:normal;font-weight:normal;font-stretch:normal;font-size:medium;line-height:normal;font-family:sans-serif;text-indent:0;text-align:start;text-decoration:none;text-decoration-line:none;text-decoration-style:solid;text-decoration-color:#000000;letter-spacing:normal;word-spacing:normal;text-transform:none;direction:ltr;block-progression:tb;writing-mode:lr-tb;baseline-shift:baseline;text-anchor:start;white-space:normal;clip-rule:nonzero;display:inline;overflow:visible;visibility:visible;opacity:0.98999999;isolation:auto;mix-blend-mode:normal;color-interpolation:sRGB;color-interpolation-filters:linearRGB;solid-color:#000000;solid-opacity:1;fill:#212121;fill-opacity:1;fill-rule:nonzero;stroke:none;stroke-width:9.686409;stroke-linecap:round;stroke-linejoin:round;stroke-miterlimit:4;stroke-dasharray:none;stroke-dashoffset:0;stroke-opacity:1;color-rendering:auto;image-rendering:auto;shape-rendering:auto;text-rendering:auto;enable-background:accumulate" />
      </g>
    </g>
    <g
       style="fill:#212121;fill-opacity:1;stroke:#212121;stroke-opacity:1"
       id="g4176">
      <path
         inkscape:connector-curvature="0"
         style="font-style:normal;font-variant:normal;font-weight:normal;font-stretch:normal;font-size:medium;line-height:125%;font-family:'M+ 2p light';letter-spacing:0px;word-spacing:0px;writing-mode:lr-tb;fill:#212121;fill-opacity:1;stroke:#212121;stroke-width:2;stroke-miterlimit:4;stroke-opacity:1"
         d="m 312.51814,141.62442 0,-84.546007 2.3872,0 0,87.049007 -3.8173,0 -54.374,-84.546007 -0.24018,0 0,84.546007 -2.3836,0 0,-87.049007 3.8137,0 54.378,84.546007 z"
         id="path3022" />
      <path
         inkscape:connector-curvature="0"
         style="font-style:normal;font-variant:normal;font-weight:normal;font-stretch:normal;font-size:medium;line-height:125%;font-family:'M+ 2p light';letter-spacing:0px;word-spacing:0px;writing-mode:lr-tb;fill:#212121;fill-opacity:1;stroke:#212121;stroke-width:2;stroke-miterlimit:4;stroke-opacity:1"
         d="m 341.29814,67.804413 0,-13.115 2.3836,0 0,13.115 z m 0,76.318007 0,-62.005007 2.3836,0 0,62.005007 z"
         id="path3024" />
      <path
         inkscape:connector-curvature="0"
         style="font-style:normal;font-variant:normal;font-weight:normal;font-stretch:normal;font-size:medium;line-height:125%;font-family:'M+ 2p light';letter-spacing:0px;word-spacing:0px;writing-mode:lr-tb;fill:#212121;fill-opacity:1;stroke:#212121;stroke-width:2;stroke-miterlimit:4;stroke-opacity:1"
         d="m 410.13814,138.99442 1.0735,2.147 c -5.2475,2.7826 -10.813,4.174 -16.696,4.174 -8.9035,0 -16.098,-2.9616 -21.583,-8.8847 -5.4852,-5.9231 -8.2278,-13.694 -8.2278,-23.31301 -10e-6,-9.9369 2.6632,-17.786997 7.9895,-23.549997 5.3263,-5.763 12.6,-8.6444 21.821,-8.6445 5.8831,6e-5 11.448,1.3914 16.696,4.174 l -1.0735,2.147 c -5.0074,-2.6249 -10.215,-3.9374 -15.622,-3.9374 -8.5857,6e-5 -15.303,2.6238 -20.151,7.8712 -4.8484,5.2475 -7.2726,12.560997 -7.2726,21.939997 -1e-5,8.90351 2.5036,16.09801 7.511,21.58301 5.0073,5.4852 11.645,8.2278 19.913,8.2278 5.4076,0 10.615,-1.3113 15.622,-3.9338 z"
         id="path3026" />
      <path
         inkscape:connector-curvature="0"
         style="font-style:normal;font-variant:normal;font-weight:normal;font-stretch:normal;font-size:medium;line-height:125%;font-family:'M+ 2p light';letter-spacing:0px;word-spacing:0px;writing-mode:lr-tb;fill:#212121;fill-opacity:1;stroke:#212121;stroke-width:2;stroke-miterlimit:4;stroke-opacity:1"
         d="m 432.76814,136.67442 c -5.0073,-5.7642 -7.511,-13.615 -7.511,-23.55201 -10e-6,-9.9369 2.5042,-17.786997 7.5128,-23.549997 5.0085,-5.763 11.846,-8.6444 20.511,-8.6445 8.6657,6e-5 15.502,2.8816 20.51,8.6445 5.0072,5.7631 7.5109,13.612997 7.511,23.549997 -7e-5,9.93701 -2.5037,17.78801 -7.511,23.55201 -5.0074,5.7642 -11.844,8.6463 -20.51,8.6463 -8.6658,0 -15.504,-2.8821 -20.513,-8.6463 z m 1.7322,-1.7285 c 4.5706,5.3251 10.831,7.9877 18.781,7.9877 7.95,0 14.21,-2.6632 18.781,-7.9895 4.5706,-5.3263 6.8559,-12.6 6.8559,-21.82101 -6e-5,-9.2213 -2.2854,-16.494997 -6.8559,-21.820997 -4.5707,-5.3263 -10.831,-7.9894 -18.781,-7.9895 -7.9501,6e-5 -14.21,2.6632 -18.781,7.9895 -4.5706,5.3264 -6.8559,12.599997 -6.8559,21.820997 -10e-6,9.22131 2.2853,16.49601 6.8559,21.82301 z"
         id="path3028" />
      <path
         sodipodi:nodetypes="cscsssccccscscc"
         inkscape:connector-curvature="0"
         style="font-style:normal;font-variant:normal;font-weight:normal;font-stretch:normal;font-size:medium;line-height:125%;font-family:'M+ 2p light';letter-spacing:0px;word-spacing:0px;writing-mode:lr-tb;fill:#212121;fill-opacity:1;stroke:#212121;stroke-width:2;stroke-miterlimit:4;stroke-opacity:1"
         d="m 560.29814,137.56492 c -7.4722,5.1674 -16.217,7.7511 -26.234,7.7511 -12.72,0 -22.856,-4.0545 -30.408,-12.163 -7.5522,-8.109 -11.328,-18.96001 -11.328,-32.55301 -1e-5,-13.752997 3.7367,-24.643997 11.21,-32.672997 7.4733,-8.0288 17.649,-12.043 30.526,-12.043 10.017,9e-5 18.762,2.5838 26.234,7.7511 l -1.31,1.9068 c -6.9967,-4.8495 -15.305,-7.2743 -24.924,-7.2744 -12.162,8e-5 -21.76,3.7962 -28.796,11.388 -7.0355,7.5923 -10.553,17.907 -10.553,30.943997 -1e-5,12.877 3.5772,23.15201 10.732,30.82301 7.1543,7.6711 16.693,11.507 28.617,11.507 9.4614,0 17.59443,-2.70848 24.74943,-7.55808 z"
         id="path3030" />
      <path
         inkscape:connector-curvature="0"
         style="font-style:normal;font-variant:normal;font-weight:normal;font-stretch:normal;font-size:medium;line-height:125%;font-family:'M+ 2p light';letter-spacing:0px;word-spacing:0px;writing-mode:lr-tb;fill:#212121;fill-opacity:1;stroke:#212121;stroke-width:2;stroke-miterlimit:4;stroke-opacity:1"
         d="m 619.14814,130.41442 -0.23654,0 c -2.067,4.6094 -5.1675,8.246 -9.3014,10.91 -4.134,2.6638 -8.9436,3.9957 -14.429,3.9957 -5.9632,0 -10.733,-1.6297 -14.31,-4.889 -3.5772,-3.2594 -5.3658,-7.5928 -5.3658,-13 -10e-6,-6.9942 3.1599,-12.41901 9.4797,-16.27601 6.3198,-3.8561 15.283,-5.7842 26.889,-5.7842 l 7.1543,0 0,-0.59316 c -5e-5,-8.110097 -1.3714,-13.714997 -4.1139,-16.815997 -2.7427,-3.1004 -7.7312,-4.6506 -14.966,-4.6507 -7.4722,6e-5 -14.428,1.8681 -20.866,5.6041 l -1.1936,-2.0269 c 6.8365,-3.9738 14.19,-5.9607 22.06,-5.9607 7.87,6e-5 13.415,1.7492 16.636,5.2475 3.2205,3.4984 4.8308,9.6993 4.8308,18.602997 l 0,22.65301 c -6e-5,5.5653 0.59553,11.131 1.7868,16.696 l -2.3836,0 c -1.0335,-4.9297 -1.5903,-9.5003 -1.6703,-13.712 z m -41.259,-2.984 c -10e-6,4.772 1.5502,8.5487 4.6507,11.33 3.1004,2.7814 7.3144,4.1722 12.642,4.1722 6.9166,0 12.62,-2.2453 17.111,-6.7358 4.4905,-4.4906 6.7358,-10.194 6.7358,-17.111 l 0,-11.32801 -7.1543,0 c -10.81,4e-5 -19.177,1.7092 -25.1,5.1274 -5.9231,3.4183 -8.8847,8.26671 -8.8847,14.54501 z"
         id="path3032" />
      <path
         sodipodi:nodetypes="cccssccscsccscscccscccc"
         inkscape:connector-curvature="0"
         style="font-style:normal;font-variant:normal;font-weight:normal;font-stretch:normal;font-size:medium;line-height:125%;font-family:'M+ 2p light';letter-spacing:0px;word-spacing:0px;writing-mode:lr-tb;fill:#212121;fill-opacity:1;stroke:#212121;stroke-width:2;stroke-miterlimit:4;stroke-opacity:1"
         d="m 679.04464,87.841413 c -6.3611,-3.0228 -12.761,-4.5342 -19.2,-4.5342 -5.6429,6e-5 -10.134,1.1924 -13.474,3.5772 -3.3394,2.3848 -5.0091,5.5653 -5.0091,9.5415 -10e-6,3.575997 1.3119,6.496897 3.9356,8.762797 2.6237,2.2659 7.5528,4.1146 14.787,5.5459 7.6322,1.5114 13.177,3.6779 16.634,6.49931 3.457,2.8215 5.1856,6.617 5.1856,11.387 -5e-5,5.1674 -1.987,9.2419 -5.9607,12.224 -3.9739,2.9816 -9.3402,4.4724 -16.099,4.4724 -7.312,0 -14.267,-1.9881 -20.866,-5.9644 l 1.1936,-2.0269 c 6.1208,3.7361 12.678,5.6041 19.673,5.6041 6.0432,0 10.833,-1.2718 14.371,-3.8155 3.5371,-2.5437 5.3057,-6.0414 5.3057,-10.493 -4e-5,-4.1339 -1.5503,-7.4133 -4.6507,-9.8381 -3.1005,-2.42481 -8.1878,-4.31281 -15.262,-5.66421 -7.3145,-1.4313 -12.581,-3.4382 -15.801,-6.0208 -3.2193,-2.5825 -4.829,-6.1396 -4.829,-10.670997 0,-4.6919 1.888,-8.4486 5.6642,-11.27 3.7761,-2.8214 8.8434,-4.2321 15.202,-4.2322 6.9166,6e-5 13.68491,1.383 20.28391,4.5635 z"
         id="path3034" />
      <path
         inkscape:connector-curvature="0"
         style="font-style:normal;font-variant:normal;font-weight:normal;font-stretch:normal;font-size:medium;line-height:125%;font-family:'M+ 2p light';letter-spacing:0px;word-spacing:0px;writing-mode:lr-tb;fill:#212121;fill-opacity:1;stroke:#212121;stroke-width:2;stroke-miterlimit:4;stroke-opacity:1"
         d="m 736.80814,141.26442 0.83697,2.2635 c -3.3382,1.1936 -6.9154,1.7904 -10.732,1.7904 -6.1209,0 -10.334,-1.2718 -12.64,-3.8155 -2.306,-2.5437 -3.4589,-7.235 -3.4589,-14.074 l 0,-40.542007 -14.905,0 0,-2.3836 14.905,0 0,-22.657 2.3836,0 0,22.657 25.637,0 0,2.3836 -25.637,0 0,40.542007 c -2e-5,6.361 0.97402,10.535 2.9221,12.522 1.9481,1.9869 5.5458,2.9804 10.793,2.9804 3.4182,0 6.7164,-0.55556 9.8945,-1.6667 z"
         id="path3036" />
    </g>
  </g>
</svg>
