<?xml version="1.0" encoding="UTF-8" standalone="no"?>
<!-- Created with Inkscape (http://www.inkscape.org/) -->
<svg id="svg2985" xmlns:rdf="http://www.w3.org/1999/02/22-rdf-syntax-ns#" xmlns="http://www.w3.org/2000/svg" viewBox="0 0 473.17 103.56" version="1.1" xmlns:cc="http://creativecommons.org/ns#" xmlns:dc="http://purl.org/dc/elements/1.1/">
 <metadata id="metadata2991">
  <rdf:RDF>
   <cc:Work rdf:about="">
    <dc:format>image/svg+xml</dc:format>
    <dc:type rdf:resource="http://purl.org/dc/dcmitype/StillImage"/>
    <dc:title/>
   </cc:Work>
  </rdf:RDF>
 </metadata>
 <text id="text4140" style="word-spacing:0px;letter-spacing:0px" xml:space="preserve" font-size="40px" y="-89.159615" x="-98.586823" font-family="sans-serif" line-height="125%" fill="#000000"><tspan id="tspan4142" y="-89.159615" x="-98.586823" font-family="&apos;Rounded M+ 1p&apos;"/></text>
 <g id="g4239">
  <g id="g4182" transform="matrix(-1 0 0 1 103.56 -.09375)">
   <path id="path4947" fill="#ccc" d="m51.781 0.09375c-28.597 0-51.781 23.184-51.781 51.781s23.184 51.781 51.781 51.781 51.781-23.184 51.781-51.781-23.184-51.781-51.781-51.781zm0.281 31.625 9.594 7.031 9.594 7.062-3.719 11.344-3.75 11.282-11.906-0.032-11.906-0.062-3.657-11.344-3.593-11.344l9.6562-7 9.6875-6.9375z"/>
   <path id="path4951" fill="#447821" d="m46.031 72c-2.5812 0-3.9361 1.7885-2.9688 4.5938l6.657 19.344c0.681 0.031 1.374 0.062 2.062 0.062 17.121 0 31.963-9.75 39.281-24h-45.031z"/>
   <path id="use4962" fill="#a80" d="m69.026 63.765c-0.82729 2.445 0.43259 4.3017 3.3999 4.2845l20.457-0.10521c0.24784-0.63509 0.49951-1.2813 0.72026-1.9337 5.4875-16.218 1.0085-33.401-10.144-44.901l-14.433 42.655z"/>
   <path id="use4964" fill="#006680" d="m30.847 52.518c-0.787-2.458-2.904-3.203-5.28-1.426l-16.391 12.241c0.17806 0.65807 0.35962 1.3273 0.56975 1.9832 5.2242 16.305 19.037 27.464 34.841 30.086l-13.74-42.884z"/>
   <path id="use4966" fill="#660080" d="m44.32 32.279c2.0659-1.5475 2.078-3.7912-0.378-5.4565l-16.925-11.491c-0.56377 0.38331-1.137 0.77358-1.6882 1.1865-13.703 10.264-19.736 26.966-17.05 42.758l36.041-26.997z"/>
   <path id="use4968" fill="#800000" d="m68.282 38.933c2.0889 1.5162 4.236 0.86467 5.101-1.9738l5.976-19.564c-0.533-0.425-1.075-0.858-1.632-1.262-13.856-10.057-31.595-10.885-45.888-3.651l36.443 26.452z"/>
  </g>
  <g id="text4144" fill="#333">
   <path id="path4211" d="m119.54 64.51q-4.0073 0-5.8931-2.263-1.8858-2.3101-1.8858-7.4961v-12.541q0-1.0843 0.75432-1.8858 0.80146-0.80147 1.8858-0.80147h0.70718q1.0843 0 1.8858 0.80147 0.80147 0.80147 0.80147 1.8858v11.928q0 3.1587 0.84861 4.3373 0.89576 1.1315 3.0173 1.1315 2.0744 0 3.7716-2.0744 1.6972-2.1215 1.6972-4.9502v-10.372q0-1.0843 0.80147-1.8858 0.80147-0.80147 1.8858-0.80147h0.80147q1.0843 0 1.8387 0.80147 0.80147 0.80147 0.80147 1.8858v19.141q0 1.0843-0.80147 1.8858-0.75432 0.80147-1.8387 0.80147h-0.4243q-1.1315 0-1.933-0.75432-0.75432-0.80147-0.80147-1.9329l-0.0471-0.70718q0-0.04715-0.0472-0.04715-0.0943 0-0.0943 0.04715-1.4144 1.7915-3.4887 2.8287-2.0272 1.0372-4.243 1.0372z"/>
   <path id="path4213" d="m145.93 51.546v0.47145q0 3.6773 1.5086 5.7046 1.5558 1.9801 4.0545 1.9801t4.0545-2.0272q1.6029-2.0744 1.6029-5.8931 0-3.9602-1.5086-5.9403-1.4615-1.9801-4.1488-1.9801-2.4987 0-4.0545 2.0744-1.5086 2.0272-1.5086 5.6103zm-3.4416 22.865q-1.0843 0-1.8858-0.80147-0.80146-0.80147-0.80146-1.8858v-29.513q0-1.0843 0.80146-1.8858 0.80147-0.80147 1.8858-0.80147h0.37716q1.1315 0 1.933 0.80147 0.80146 0.75432 0.84861 1.8858v0.70718q0 0.04715 0.0471 0.04715 0.0943 0 0.0943-0.04715 2.8287-3.8659 7.4489-3.8659 4.5731 0 7.166 3.253 2.6401 3.253 2.6401 9.4762 0 6.0817-2.7344 9.429-2.6873 3.3002-7.0718 3.3002-4.4788 0-7.1661-3.3944 0-0.04715-0.0943-0.04715-0.0471 0-0.0471 0.04715v10.608q0 1.0843-0.80147 1.8858-0.80147 0.80147-1.8858 0.80147h-0.75432z"/>
   <path id="path4215" d="m172.27 64.039q-1.0843 0-1.8858-0.80147-0.80146-0.80147-0.80146-1.8858v-29.984q0-1.0843 0.80146-1.8858 0.80147-0.80147 1.8858-0.80147h1.1315q1.0843 0 1.8858 0.80147 0.80147 0.80147 0.80147 1.8858v29.984q0 1.0843-0.80147 1.8858-0.80146 0.80147-1.8858 0.80147h-1.1315z"/>
   <path id="path4217" d="m198.95 45.794q-1.6029-2.0744-4.4316-2.0744t-4.4316 2.0744q-1.6029 2.0272-1.6029 5.9874t1.6029 6.0346q1.6029 2.0272 4.4316 2.0272t4.4316-2.0272q1.6029-2.0744 1.6029-6.0346t-1.6029-5.9874zm4.4316 15.275q-3.253 3.4416-8.8633 3.4416t-8.9104-3.4416q-3.253-3.4416-3.253-9.2876t3.253-9.2876q3.3002-3.4416 8.9104-3.4416 5.6103 0 8.8633 3.4416 3.3002 3.4416 3.3002 9.2876t-3.3002 9.2876z"/>
   <path id="path4219" d="m223.79 52.3q-3.7245 0-5.7046 1.2729-1.9801 1.2258-1.9801 3.253 0 1.5086 0.89576 2.3573 0.89576 0.84861 2.4516 0.84861 2.6873 0 4.5259-1.7444 1.8387-1.7444 1.8387-4.3845v-1.1786q0-0.42431-0.37716-0.42431h-1.6501zm-5.8931 12.211q-3.4416 0-5.516-1.8858-2.0272-1.9329-2.0272-5.3274 0-4.1016 3.4416-6.5532 3.4887-2.4987 9.9948-2.4987h1.6501q0.37716 0 0.37716-0.37716-0.0471-2.3573-1.0372-3.3002-0.99005-0.9429-3.4887-0.9429-3.3002 0-6.5532 1.1786-0.84861 0.28287-1.6501-0.09429-0.75432-0.42431-0.9429-1.2729-0.18858-0.99005 0.28287-1.8858 0.47145-0.89576 1.4144-1.2258 3.7245-1.2729 7.5904-1.2729 5.6103 0 8.0618 2.2158 2.4515 2.1687 2.4515 7.0718v9.099q0 1.9329 0.28287 3.913 0.14144 1.0372-0.51859 1.8858-0.66003 0.80147-1.6972 0.80147h-0.47146q-1.1786 0-2.0744-0.75432-0.89576-0.75432-0.99005-1.8858-0.0471-0.33002-0.0471-0.89576 0-0.09429-0.0471-0.09429-0.0943 0-0.0943 0.04715-1.3201 1.8858-3.583 2.9701-2.2158 1.0843-4.8088 1.0843z"/>
   <path id="path4221" d="m248.37 43.861q-2.6873 0-4.1959 1.9801-1.4615 1.9801-1.4615 5.9403 0 3.8188 1.5558 5.8931 1.6029 2.0272 4.1016 2.0272t4.0073-1.9801q1.5558-2.0272 1.5558-5.7046v-0.47145q0-3.583-1.5558-5.6103-1.5086-2.0744-4.0073-2.0744zm-1.7444 20.65q-4.3845 0-7.1189-3.3002-2.6873-3.3473-2.6873-9.429 0-6.2232 2.593-9.4762 2.6401-3.253 7.2132-3.253 4.3845 0 7.166 3.5359 0 0.09429 0.0943 0.09429 0.0471 0 0.0471-0.04715v-11.268q0-1.0843 0.80146-1.8858 0.80147-0.80147 1.8858-0.80147h0.75432q1.0843 0 1.8858 0.80147 0.80147 0.80147 0.80147 1.8858v29.984q0 1.0843-0.80147 1.8858-0.80147 0.80147-1.8858 0.80147h-0.37716q-1.1315 0-1.933-0.75432-0.80147-0.80147-0.84861-1.9329v-0.70718q0-0.04715-0.0472-0.04715-0.0943 0-0.0943 0.04715-2.8287 3.8659-7.4489 3.8659z"/>
   <path id="path4223" d="m269.56 52.866q-1.0372 0-1.7915-0.70718-0.75432-0.75432-0.75432-1.7915t0.75432-1.7444q0.75433-0.75432 1.7915-0.75432h10.183q1.0372 0 1.7915 0.75432 0.75432 0.70718 0.75432 1.7444t-0.75432 1.7915q-0.75432 0.70718-1.7915 0.70718h-10.183z"/>
   <path id="path4225" d="m299.52 43.767q-2.5458 0-4.0073 1.9329-1.4615 1.8858-1.4615 5.6103 0 3.5359 1.5086 5.5631 1.5086 1.9801 3.9602 1.9801 2.593 0 4.1488-1.9329 1.6029-1.9329 1.6029-5.3745v-0.47145q0-3.4416-1.6029-5.3745-1.5558-1.9329-4.1488-1.9329zm-1.7444 19.801q-4.1488 0-6.9303-3.3002-2.7344-3.3473-2.7344-8.9576 0-5.9403 2.5458-9.099 2.593-3.1587 7.1189-3.1587 4.6674 0 7.5904 3.8659 0.0471 0.04715 0.0943 0.04715 0.0471 0 0.0471-0.04715l0.0471-0.70718q0.0471-1.1315 0.84861-1.8858 0.80147-0.80147 1.933-0.80147h0.37716q1.0843 0 1.8858 0.80147 0.80146 0.80147 0.80146 1.8858v19.329q0 13.342-12.918 13.342-2.9701 0-5.7517-0.70718-0.99005-0.23573-1.4615-1.1315-0.47145-0.89576-0.23572-1.8858 0.18858-0.89576 1.0372-1.3672 0.84861-0.42431 1.7444-0.18858 2.4044 0.66003 4.5259 0.66003 3.6773 0 5.3274-1.9329t1.6501-6.6475v-1.6972-0.04715q-0.0943 0-0.0943 0.09429-2.593 3.5359-7.4489 3.5359z"/>
   <path id="path4227" d="m324.02 51.546v0.47145q0 3.6773 1.5086 5.7046 1.5558 1.9801 4.0545 1.9801t4.0545-2.0272q1.6029-2.0744 1.6029-5.8931 0-3.9602-1.5086-5.9403-1.4615-1.9801-4.1488-1.9801-2.4987 0-4.0545 2.0744-1.5086 2.0272-1.5086 5.6103zm-3.4416 22.865q-1.0843 0-1.8858-0.80147-0.80147-0.80147-0.80147-1.8858v-29.513q0-1.0843 0.80147-1.8858 0.80146-0.80147 1.8858-0.80147h0.37716q1.1315 0 1.933 0.80147 0.80147 0.75432 0.84861 1.8858v0.70718q0 0.04715 0.0471 0.04715 0.0943 0 0.0943-0.04715 2.8287-3.8659 7.4489-3.8659 4.5731 0 7.166 3.253 2.6401 3.253 2.6401 9.4762 0 6.0817-2.7344 9.429-2.6873 3.3002-7.0718 3.3002-4.4788 0-7.166-3.3944 0-0.04715-0.0943-0.04715-0.0471 0-0.0471 0.04715v10.608q0 1.0843-0.80146 1.8858-0.80147 0.80147-1.8858 0.80147h-0.75432z"/>
   <path id="path4229" d="m349.17 64.039q-1.0843 0-1.8858-0.80147-0.80147-0.80147-0.80147-1.8858v-29.984q0-1.0843 0.80147-1.8858 0.80147-0.80147 1.8858-0.80147h0.75432q1.0843 0 1.8858 0.80147 0.80146 0.80147 0.80146 1.8858v11.268q0 0.04715 0.0471 0.04715t0.0943-0.04715q3.0644-3.583 7.4961-3.583 4.2431 0 6.2232 2.6401 2.0272 2.593 2.0272 8.5333v11.126q0 1.0843-0.80147 1.8858-0.80146 0.80147-1.8858 0.80147h-0.70718q-1.0843 0-1.8858-0.80147-0.75432-0.80147-0.75432-1.8858v-10.513q0-4.0545-0.9429-5.4688-0.94291-1.4615-3.3944-1.4615-2.2158 0-3.8659 2.2158-1.6501 2.1687-1.6501 4.8559v10.372q0 1.0843-0.80146 1.8858-0.80147 0.80147-1.8858 0.80147h-0.75432z"/>
   <path id="path4231" d="m389.74 45.794q-1.6029-2.0744-4.4316-2.0744t-4.4316 2.0744q-1.6029 2.0272-1.6029 5.9874t1.6029 6.0346q1.6029 2.0272 4.4316 2.0272t4.4316-2.0272q1.6029-2.0744 1.6029-6.0346t-1.6029-5.9874zm4.4316 15.275q-3.253 3.4416-8.8633 3.4416t-8.9104-3.4416q-3.253-3.4416-3.253-9.2876t3.253-9.2876q3.3002-3.4416 8.9104-3.4416 5.6103 0 8.8633 3.4416 3.3002 3.4416 3.3002 9.2876t-3.3002 9.2876z"/>
   <path id="path4233" d="m402.95 45.04q-0.9429 0-1.6029-0.66003-0.66003-0.70718-0.66003-1.6501 0-0.9429 0.66003-1.6029 0.66003-0.66003 1.6029-0.66003h2.4044q0.42431 0 0.42431-0.42431v-5.846q0-1.0843 0.80146-1.8858 0.80147-0.80147 1.8858-0.80147h0.89575q1.0843 0 1.8858 0.80147 0.80146 0.80147 0.80146 1.8858v5.846q0 0.42431 0.37716 0.42431h5.7517q0.94291 0 1.6029 0.66003 0.70717 0.66003 0.70717 1.6029 0 0.9429-0.70717 1.6501-0.66003 0.66003-1.6029 0.66003h-5.7517q-0.37716 0-0.37716 0.37716v9.6647q0 2.7816 0.70718 3.7716 0.70717 0.9429 2.5458 0.9429 0.66003 0 1.9801-0.18858 0.89575-0.14144 1.6972 0.37716 0.80147 0.47145 0.9429 1.3201 0.18858 0.99005-0.33001 1.8387-0.5186 0.80147-1.5086 0.99005-2.1215 0.37716-4.0545 0.37716-4.3374 0-6.3174-1.9329-1.9329-1.9329-1.9329-6.4117v-10.749q0-0.37716-0.42431-0.37716h-2.4044z"/>
   <path id="path4235" d="m441.49 45.794q-1.6029-2.0744-4.4316-2.0744t-4.4316 2.0744q-1.6029 2.0272-1.6029 5.9874t1.6029 6.0346q1.6029 2.0272 4.4316 2.0272t4.4316-2.0272q1.6029-2.0744 1.6029-6.0346t-1.6029-5.9874zm4.4316 15.275q-3.253 3.4416-8.8633 3.4416t-8.9104-3.4416q-3.253-3.4416-3.253-9.2876t3.253-9.2876q3.3002-3.4416 8.9104-3.4416 5.6103 0 8.8633 3.4416 3.3002 3.4416 3.3002 9.2876t-3.3002 9.2876z"/>
   <path id="path4237" d="m462.8 54.139q-5.186-0.84861-7.4489-2.7816-2.2158-1.9329-2.2158-5.2331 0-3.253 2.5458-5.1388 2.593-1.9329 7.4961-1.9329 3.6773 0 6.9775 0.99005 0.9429 0.28287 1.3672 1.2258 0.47145 0.89576 0.23572 1.8858-0.23572 0.89576-1.0372 1.3201-0.80146 0.37716-1.6972 0.09429-2.6873-0.89576-5.516-0.89576-4.3373 0-4.3373 2.5458 0 1.2258 0.9429 1.8858 0.9429 0.66003 3.3002 0.99005 5.2331 0.75432 7.4961 2.7344 2.263 1.9329 2.263 5.3745 0 3.3944-2.6401 5.3745-2.593 1.9329-7.3546 1.9329-4.4316 0-7.9675-1.3672-0.99005-0.37716-1.4144-1.3201-0.37716-0.9429-0.14144-1.9801 0.18858-0.89576 0.99005-1.2729 0.84861-0.37716 1.6972 0 3.1116 1.2729 6.506 1.2729 4.1016 0 4.1016-2.7344 0-1.2729-0.84862-1.8858-0.84861-0.66003-3.3002-1.0843z"/>
  </g>
 </g>
</svg>
